<svg version="1.1" viewBox="0.0 0.0 899.6272965879265 475.23359580052494" fill="none" stroke="none" stroke-linecap="square" stroke-miterlimit="10" xmlns:xlink="http://www.w3.org/1999/xlink" xmlns="http://www.w3.org/2000/svg"><clipPath id="p.0"><path d="m0 0l899.6273 0l0 475.23358l-899.6273 0l0 -475.23358z" clip-rule="nonzero"/></clipPath><g clip-path="url(#p.0)"><path fill="#000000" fill-opacity="0.0" d="m0 0l899.6273 0l0 475.23358l-899.6273 0z" fill-rule="evenodd"/><path fill="#ead1dc" d="m404.90158 2.9475067l77.480316 0l0 59.181103l-77.480316 0z" fill-rule="evenodd"/><path stroke="#000000" stroke-width="1.0" stroke-linejoin="round" stroke-linecap="butt" d="m404.90158 2.9475067l77.480316 0l0 59.181103l-77.480316 0z" fill-rule="evenodd"/><path fill="#000000" d="m428.26575 39.738056l-2.75 0l0 -10.375l2.5625 0l0 1.484375q0.640625 -1.046875 1.15625 -1.375q0.53125 -0.34375 1.203125 -0.34375q0.9375 0 1.796875 0.515625l-0.84375 2.390625q-0.6875 -0.4375 -1.28125 -0.4375q-0.578125 0 -0.984375 0.3125q-0.40625 0.3125 -0.640625 1.15625q-0.21875 0.828125 -0.21875 3.46875l0 3.203125zm4.517578 -5.328125q0 -1.375 0.671875 -2.65625q0.6875 -1.28125 1.921875 -1.953125q1.234375 -0.671875 2.75 -0.671875q2.359375 0 3.859375 1.53125q1.5 1.53125 1.5 3.859375q0 2.359375 -1.515625 3.90625q-1.515625 1.546875 -3.828125 1.546875q-1.421875 0 -2.71875 -0.640625q-1.28125 -0.65625 -1.96875 -1.890625q-0.671875 -1.25 -0.671875 -3.03125zm2.8125 0.140625q0 1.546875 0.734375 2.375q0.734375 0.8125 1.8125 0.8125q1.078125 0 1.796875 -0.8125q0.734375 -0.828125 0.734375 -2.390625q0 -1.53125 -0.734375 -2.34375q-0.71875 -0.828125 -1.796875 -0.828125q-1.078125 0 -1.8125 0.828125q-0.734375 0.8125 -0.734375 2.359375zm9.404297 -0.140625q0 -1.375 0.671875 -2.65625q0.6875 -1.28125 1.921875 -1.953125q1.234375 -0.671875 2.75 -0.671875q2.359375 0 3.859375 1.53125q1.5 1.53125 1.5 3.859375q0 2.359375 -1.515625 3.90625q-1.515625 1.546875 -3.828125 1.546875q-1.421875 0 -2.71875 -0.640625q-1.28125 -0.65625 -1.96875 -1.890625q-0.671875 -1.25 -0.671875 -3.03125zm2.8125 0.140625q0 1.546875 0.734375 2.375q0.734375 0.8125 1.8125 0.8125q1.078125 0 1.796875 -0.8125q0.734375 -0.828125 0.734375 -2.390625q0 -1.53125 -0.734375 -2.34375q-0.71875 -0.828125 -1.796875 -0.828125q-1.078125 0 -1.8125 0.828125q-0.734375 0.8125 -0.734375 2.359375zm14.794922 -5.1875l0 2.1875l-1.875 0l0 4.1875q0 1.265625 0.046875 1.484375q0.0625 0.203125 0.25 0.34375q0.203125 0.125 0.46875 0.125q0.375 0 1.109375 -0.265625l0.234375 2.140625q-0.96875 0.40625 -2.171875 0.40625q-0.75 0 -1.34375 -0.25q-0.59375 -0.25 -0.875 -0.640625q-0.265625 -0.40625 -0.375 -1.078125q-0.09375 -0.46875 -0.09375 -1.921875l0 -4.53125l-1.265625 0l0 -2.1875l1.265625 0l0 -2.0625l2.75 -1.59375l0 3.65625l1.875 0z" fill-rule="nonzero"/><path fill="#fce5cd" d="m3.4265091 303.6719l77.480316 0l0 59.18112l-77.480316 0z" fill-rule="evenodd"/><path stroke="#000000" stroke-width="1.0" stroke-linejoin="round" stroke-linecap="butt" d="m3.4265091 303.6719l77.480316 0l0 59.18112l-77.480316 0z" fill-rule="evenodd"/><path fill="#fce5cd" d="m119.51837 303.6719l77.480316 0l0 59.18112l-77.480316 0z" fill-rule="evenodd"/><path stroke="#000000" stroke-width="1.0" stroke-linejoin="round" stroke-linecap="butt" d="m119.51837 303.6719l77.480316 0l0 59.18112l-77.480316 0z" fill-rule="evenodd"/><path fill="#fce5cd" d="m235.61023 303.6719l77.480316 0l0 59.18112l-77.480316 0z" fill-rule="evenodd"/><path stroke="#000000" stroke-width="1.0" stroke-linejoin="round" stroke-linecap="butt" d="m235.61023 303.6719l77.480316 0l0 59.18112l-77.480316 0z" fill-rule="evenodd"/><path fill="#fce5cd" d="m351.7021 303.6719l77.480316 0l0 59.18112l-77.480316 0z" fill-rule="evenodd"/><path stroke="#000000" stroke-width="1.0" stroke-linejoin="round" stroke-linecap="butt" d="m351.7021 303.6719l77.480316 0l0 59.18112l-77.480316 0z" fill-rule="evenodd"/><path fill="#fce5cd" d="m467.79398 303.6719l77.480316 0l0 59.18112l-77.480316 0z" fill-rule="evenodd"/><path stroke="#0000ff" stroke-width="3.0" stroke-linejoin="round" stroke-linecap="butt" d="m467.79398 303.6719l77.480316 0l0 59.18112l-77.480316 0z" fill-rule="evenodd"/><path fill="#fce5cd" d="m583.8858 303.6719l77.48035 0l0 59.18112l-77.48035 0z" fill-rule="evenodd"/><path stroke="#0000ff" stroke-width="3.0" stroke-linejoin="round" stroke-linecap="butt" d="m583.8858 303.6719l77.48035 0l0 59.18112l-77.48035 0z" fill-rule="evenodd"/><path fill="#fce5cd" d="m699.97766 303.6719l77.48035 0l0 59.18112l-77.48035 0z" fill-rule="evenodd"/><path stroke="#0000ff" stroke-width="3.0" stroke-linejoin="round" stroke-linecap="butt" d="m699.97766 303.6719l77.48035 0l0 59.18112l-77.48035 0z" fill-rule="evenodd"/><path fill="#fce5cd" d="m816.0696 303.6719l77.480286 0l0 59.18112l-77.480286 0z" fill-rule="evenodd"/><path stroke="#0000ff" stroke-width="3.0" stroke-linejoin="round" stroke-linecap="butt" d="m816.0696 303.6719l77.480286 0l0 59.18112l-77.480286 0z" fill-rule="evenodd"/><path fill="#000000" fill-opacity="0.0" d="m61.472443 203.43045l77.480316 0l0 59.18109l-77.480316 0z" fill-rule="evenodd"/><path stroke="#000000" stroke-width="1.0" stroke-linejoin="round" stroke-linecap="butt" d="m61.472443 203.43045l77.480316 0l0 59.18109l-77.480316 0z" fill-rule="evenodd"/><path fill="#000000" fill-opacity="0.0" d="m293.65485 203.43045l77.480316 0l0 59.18109l-77.480316 0z" fill-rule="evenodd"/><path stroke="#000000" stroke-width="1.0" stroke-linejoin="round" stroke-linecap="butt" d="m293.65485 203.43045l77.480316 0l0 59.18109l-77.480316 0z" fill-rule="evenodd"/><path fill="#000000" fill-opacity="0.0" d="m525.83466 203.43045l77.480286 0l0 59.18109l-77.480286 0z" fill-rule="evenodd"/><path stroke="#000000" stroke-width="1.0" stroke-linejoin="round" stroke-linecap="butt" d="m525.83466 203.43045l77.480286 0l0 59.18109l-77.480286 0z" fill-rule="evenodd"/><path fill="#000000" fill-opacity="0.0" d="m758.0171 203.43045l77.480286 0l0 59.18109l-77.480286 0z" fill-rule="evenodd"/><path stroke="#000000" stroke-width="1.0" stroke-linejoin="round" stroke-linecap="butt" d="m758.0171 203.43045l77.480286 0l0 59.18109l-77.480286 0z" fill-rule="evenodd"/><path fill="#ead1dc" d="m177.56299 103.18898l77.480316 0l0 59.18109l-77.480316 0z" fill-rule="evenodd"/><path stroke="#000000" stroke-width="1.0" stroke-linejoin="round" stroke-linecap="butt" d="m177.56299 103.18898l77.480316 0l0 59.18109l-77.480316 0z" fill-rule="evenodd"/><path fill="#000000" d="m218.61662 139.97952l-2.75 0l0 -10.34375q-1.5 1.40625 -3.546875 2.078125l0 -2.484375q1.078125 -0.359375 2.328125 -1.3281174q1.265625 -0.984375 1.734375 -2.296875l2.234375 0l0 14.374992z" fill-rule="nonzero"/><path fill="#ead1dc" d="m641.9265 103.18898l77.480286 0l0 59.18109l-77.480286 0z" fill-rule="evenodd"/><path stroke="#0000ff" stroke-width="3.0" stroke-linejoin="round" stroke-linecap="butt" d="m641.9265 103.18898l77.480286 0l0 59.18109l-77.480286 0z" fill-rule="evenodd"/><path fill="#000000" d="m685.23016 137.43265l0 2.546875l-9.625 0q0.15625 -1.453125 0.9375 -2.734375q0.78125 -1.296875 3.078125 -3.4375q1.859375 -1.734375 2.28125 -2.34375q0.5625 -0.84375 0.5625 -1.6875q0 -0.90625 -0.5 -1.390625q-0.484375 -0.49999237 -1.34375 -0.49999237q-0.859375 0 -1.375 0.5156174q-0.5 0.515625 -0.578125 1.71875l-2.734375 -0.28125q0.234375 -2.2656174 1.515625 -3.2499924q1.296875 -0.984375 3.234375 -0.984375q2.125 0 3.328125 1.140625q1.21875 1.140625 1.21875 2.8437424q0 0.96875 -0.359375 1.84375q-0.34375 0.875 -1.09375 1.828125q-0.5 0.640625 -1.796875 1.828125q-1.296875 1.1875 -1.640625 1.578125q-0.34375 0.390625 -0.5625 0.765625l5.453125 0z" fill-rule="nonzero"/><path fill="#000000" fill-opacity="0.0" d="m443.64172 62.12861l-227.33858 41.07087" fill-rule="evenodd"/><path stroke="#000000" stroke-width="1.0" stroke-linejoin="round" stroke-linecap="butt" d="m443.64172 62.12861l-227.33858 41.07087" fill-rule="evenodd"/><path fill="#000000" fill-opacity="0.0" d="m443.64172 62.12861l237.03937 41.07087" fill-rule="evenodd"/><path stroke="#000000" stroke-width="1.0" stroke-linejoin="round" stroke-linecap="butt" d="m443.64172 62.12861l237.03937 41.07087" fill-rule="evenodd"/><path fill="#000000" fill-opacity="0.0" d="m216.30315 162.37007l-116.09448 41.070877" fill-rule="evenodd"/><path stroke="#000000" stroke-width="1.0" stroke-linejoin="round" stroke-linecap="butt" d="m216.30315 162.37007l-116.09448 41.070877" fill-rule="evenodd"/><path fill="#000000" fill-opacity="0.0" d="m216.30315 162.37007l116.0945 41.070877" fill-rule="evenodd"/><path stroke="#000000" stroke-width="1.0" stroke-linejoin="round" stroke-linecap="butt" d="m216.30315 162.37007l116.0945 41.070877" fill-rule="evenodd"/><path fill="#000000" fill-opacity="0.0" d="m680.6667 162.37007l-116.09448 41.070877" fill-rule="evenodd"/><path stroke="#000000" stroke-width="1.0" stroke-linejoin="round" stroke-linecap="butt" d="m680.6667 162.37007l-116.09448 41.070877" fill-rule="evenodd"/><path fill="#000000" fill-opacity="0.0" d="m680.6667 162.37007l116.09448 41.070877" fill-rule="evenodd"/><path stroke="#000000" stroke-width="1.0" stroke-linejoin="round" stroke-linecap="butt" d="m680.6667 162.37007l116.09448 41.070877" fill-rule="evenodd"/><path fill="#000000" fill-opacity="0.0" d="m100.2126 262.61154l-58.047245 41.07086" fill-rule="evenodd"/><path stroke="#000000" stroke-width="1.0" stroke-linejoin="round" stroke-linecap="butt" d="m100.2126 262.61154l-58.047245 41.07086" fill-rule="evenodd"/><path fill="#000000" fill-opacity="0.0" d="m100.2126 262.61154l58.04724 41.07086" fill-rule="evenodd"/><path stroke="#000000" stroke-width="1.0" stroke-linejoin="round" stroke-linecap="butt" d="m100.2126 262.61154l58.04724 41.07086" fill-rule="evenodd"/><path fill="#000000" fill-opacity="0.0" d="m332.39502 262.61154l-58.04724 41.07086" fill-rule="evenodd"/><path stroke="#000000" stroke-width="1.0" stroke-linejoin="round" stroke-linecap="butt" d="m332.39502 262.61154l-58.04724 41.07086" fill-rule="evenodd"/><path fill="#000000" fill-opacity="0.0" d="m332.39502 262.61154l58.04724 41.07086" fill-rule="evenodd"/><path stroke="#000000" stroke-width="1.0" stroke-linejoin="round" stroke-linecap="butt" d="m332.39502 262.61154l58.04724 41.07086" fill-rule="evenodd"/><path fill="#000000" fill-opacity="0.0" d="m564.5748 262.61154l-58.04727 41.07086" fill-rule="evenodd"/><path stroke="#000000" stroke-width="1.0" stroke-linejoin="round" stroke-linecap="butt" d="m564.5748 262.61154l-58.04727 41.07086" fill-rule="evenodd"/><path fill="#000000" fill-opacity="0.0" d="m564.5748 262.61154l58.04724 41.07086" fill-rule="evenodd"/><path stroke="#000000" stroke-width="1.0" stroke-linejoin="round" stroke-linecap="butt" d="m564.5748 262.61154l58.04724 41.07086" fill-rule="evenodd"/><path fill="#000000" fill-opacity="0.0" d="m796.7572 262.61154l-58.04724 41.07086" fill-rule="evenodd"/><path stroke="#000000" stroke-width="1.0" stroke-linejoin="round" stroke-linecap="butt" d="m796.7572 262.61154l-58.04724 41.07086" fill-rule="evenodd"/><path fill="#000000" fill-opacity="0.0" d="m796.7572 262.61154l58.04724 41.07086" fill-rule="evenodd"/><path stroke="#000000" stroke-width="1.0" stroke-linejoin="round" stroke-linecap="butt" d="m796.7572 262.61154l58.04724 41.07086" fill-rule="evenodd"/><path fill="#000000" fill-opacity="0.0" d="m741.36615 7.782152l165.07086 0l0 36.598427l-165.07086 0z" fill-rule="evenodd"/><path fill="#000000" d="m751.3193 24.954327l1.90625 -0.171875q0.140625 1.15625 0.625 1.890625q0.5 0.734375 1.546875 1.1875q1.046875 0.453125 2.34375 0.453125q1.15625 0 2.03125 -0.34375q0.890625 -0.34375 1.3125 -0.9375q0.4375 -0.609375 0.4375 -1.3125q0 -0.71875 -0.421875 -1.25q-0.40625 -0.546875 -1.359375 -0.90625q-0.609375 -0.25 -2.71875 -0.75q-2.109375 -0.5 -2.953125 -0.953125q-1.09375 -0.578125 -1.625 -1.421875q-0.53125 -0.84375 -0.53125 -1.890625q0 -1.15625 0.65625 -2.15625q0.65625 -1.015625 1.90625 -1.53125q1.265625 -0.53125 2.8125 -0.53125q1.6875 0 2.984375 0.546875q1.296875 0.546875 1.984375 1.609375q0.703125 1.0625 0.765625 2.40625l-1.9375 0.15625q-0.15625 -1.453125 -1.0625 -2.1875q-0.890625 -0.75 -2.65625 -0.75q-1.828125 0 -2.671875 0.671875q-0.84375 0.671875 -0.84375 1.625q0 0.8125 0.59375 1.34375q0.59375 0.53125 3.046875 1.09375q2.46875 0.5625 3.390625 0.96875q1.328125 0.625 1.953125 1.5625q0.640625 0.9375 0.640625 2.171875q0 1.21875 -0.703125 2.296875q-0.6875 1.078125 -2.0 1.6875q-1.296875 0.59375 -2.9375 0.59375q-2.078125 0 -3.484375 -0.609375q-1.390625 -0.609375 -2.1875 -1.8125q-0.796875 -1.21875 -0.84375 -2.75zm18.772583 3.234375l0.265625 1.65625q-0.78125 0.15625 -1.40625 0.15625q-1.03125 0 -1.59375 -0.3125q-0.5625 -0.328125 -0.796875 -0.84375q-0.21875 -0.53125 -0.21875 -2.21875l0 -6.375l-1.375 0l0 -1.453125l1.375 0l0 -2.734375l1.859375 -1.125l0 3.859375l1.890625 0l0 1.453125l-1.890625 0l0 6.46875q0 0.8125 0.09375 1.046875q0.109375 0.21875 0.328125 0.359375q0.234375 0.125 0.640625 0.125q0.3125 0 0.828125 -0.0625zm1.1287231 -3.859375q0 -3.078125 1.71875 -4.546875q1.421875 -1.234375 3.46875 -1.234375q2.28125 0 3.71875 1.5q1.453125 1.484375 1.453125 4.125q0 2.140625 -0.640625 3.359375q-0.625 1.21875 -1.859375 1.90625q-1.21875 0.671875 -2.671875 0.671875q-2.3125 0 -3.75 -1.484375q-1.4375 -1.5 -1.4375 -4.296875zm1.9375 0q0 2.125 0.921875 3.1875q0.921875 1.046875 2.328125 1.046875q1.40625 0 2.328125 -1.0625q0.921875 -1.0625 0.921875 -3.234375q0 -2.046875 -0.9375 -3.109375q-0.921875 -1.0625 -2.3125 -1.0625q-1.40625 0 -2.328125 1.0625q-0.921875 1.046875 -0.921875 3.171875zm10.611694 5.53125l0 -11.0625l1.6875 0l0 1.671875q0.640625 -1.171875 1.1875 -1.546875q0.546875 -0.375 1.203125 -0.375q0.953125 0 1.921875 0.609375l-0.640625 1.734375q-0.6875 -0.40625 -1.375 -0.40625q-0.609375 0 -1.109375 0.375q-0.484375 0.359375 -0.6875 1.015625q-0.3125 1.0 -0.3125 2.1875l0 5.796875l-1.875 0zm14.696228 -3.5625l1.921875 0.234375q-0.453125 1.703125 -1.6875 2.640625q-1.234375 0.9375 -3.171875 0.9375q-2.421875 0 -3.84375 -1.484375q-1.421875 -1.5 -1.421875 -4.203125q0 -2.796875 1.4375 -4.328125q1.4375 -1.546875 3.734375 -1.546875q2.21875 0 3.609375 1.515625q1.40625 1.5 1.40625 4.25q0 0.15625 0 0.5l-8.25 0q0.109375 1.8125 1.03125 2.78125q0.921875 0.96875 2.3125 0.96875q1.03125 0 1.75 -0.53125q0.734375 -0.546875 1.171875 -1.734375zm-6.15625 -3.03125l6.171875 0q-0.125 -1.390625 -0.703125 -2.09375q-0.90625 -1.078125 -2.328125 -1.078125q-1.296875 0 -2.171875 0.859375q-0.875 0.859375 -0.96875 2.3125zm16.365417 6.59375l0 -15.265625l1.875 0l0 5.46875q1.3125 -1.515625 3.3125 -1.515625q1.234375 0 2.140625 0.484375q0.90625 0.484375 1.296875 1.34375q0.390625 0.84375 0.390625 2.46875l0 7.015625l-1.875 0l0 -7.015625q0 -1.40625 -0.609375 -2.046875q-0.609375 -0.640625 -1.734375 -0.640625q-0.828125 0 -1.5625 0.4375q-0.734375 0.4375 -1.046875 1.171875q-0.3125 0.734375 -0.3125 2.046875l0 6.046875l-1.875 0zm19.080444 -1.359375q-1.046875 0.875 -2.015625 1.25q-0.953125 0.359375 -2.0625 0.359375q-1.8125 0 -2.796875 -0.890625q-0.984375 -0.890625 -0.984375 -2.28125q0 -0.8125 0.375 -1.484375q0.375 -0.671875 0.96875 -1.078125q0.59375 -0.40625 1.34375 -0.609375q0.5625 -0.140625 1.671875 -0.28125q2.265625 -0.265625 3.34375 -0.640625q0.015625 -0.390625 0.015625 -0.5q0 -1.140625 -0.53125 -1.609375q-0.71875 -0.640625 -2.140625 -0.640625q-1.328125 0 -1.953125 0.46875q-0.625 0.46875 -0.9375 1.640625l-1.828125 -0.25q0.25 -1.171875 0.8125 -1.890625q0.578125 -0.734375 1.65625 -1.125q1.09375 -0.390625 2.515625 -0.390625q1.421875 0 2.296875 0.34375q0.890625 0.328125 1.3125 0.828125q0.421875 0.5 0.578125 1.28125q0.09375 0.46875 0.09375 1.71875l0 2.5q0 2.625 0.125 3.3125q0.125 0.6875 0.46875 1.328125l-1.953125 0q-0.296875 -0.578125 -0.375 -1.359375zm-0.15625 -4.1875q-1.015625 0.40625 -3.0625 0.703125q-1.15625 0.171875 -1.640625 0.375q-0.46875 0.203125 -0.734375 0.609375q-0.265625 0.40625 -0.265625 0.890625q0 0.75 0.5625 1.25q0.578125 0.5 1.671875 0.5q1.078125 0 1.921875 -0.46875q0.84375 -0.484375 1.25 -1.296875q0.296875 -0.640625 0.296875 -1.875l0 -0.6875zm4.0491943 2.25l1.859375 -0.296875q0.15625 1.109375 0.859375 1.703125q0.71875 0.59375 2.0 0.59375q1.296875 0 1.921875 -0.515625q0.625 -0.53125 0.625 -1.234375q0 -0.640625 -0.5625 -1.0q-0.375 -0.25 -1.90625 -0.640625q-2.0625 -0.515625 -2.859375 -0.890625q-0.796875 -0.390625 -1.21875 -1.0625q-0.40625 -0.671875 -0.40625 -1.484375q0 -0.734375 0.328125 -1.359375q0.34375 -0.640625 0.9375 -1.0625q0.4375 -0.3125 1.1875 -0.53125q0.75 -0.234375 1.625 -0.234375q1.296875 0 2.28125 0.375q0.984375 0.375 1.453125 1.015625q0.46875 0.640625 0.640625 1.71875l-1.828125 0.25q-0.125 -0.859375 -0.734375 -1.328125q-0.59375 -0.484375 -1.6875 -0.484375q-1.28125 0 -1.84375 0.421875q-0.546875 0.421875 -0.546875 1.0q0 0.359375 0.234375 0.65625q0.21875 0.296875 0.71875 0.5q0.28125 0.109375 1.65625 0.484375q1.984375 0.53125 2.765625 0.875q0.796875 0.328125 1.234375 0.984375q0.453125 0.640625 0.453125 1.59375q0 0.9375 -0.546875 1.765625q-0.546875 0.828125 -1.578125 1.28125q-1.03125 0.453125 -2.328125 0.453125q-2.15625 0 -3.296875 -0.890625q-1.125 -0.90625 -1.4375 -2.65625zm11.4140625 3.296875l0 -15.265625l1.875 0l0 5.46875q1.3125 -1.515625 3.3125 -1.515625q1.234375 0 2.140625 0.484375q0.90625 0.484375 1.296875 1.34375q0.390625 0.84375 0.390625 2.46875l0 7.015625l-1.875 0l0 -7.015625q0 -1.40625 -0.609375 -2.046875q-0.609375 -0.640625 -1.734375 -0.640625q-0.828125 0 -1.5625 0.4375q-0.734375 0.4375 -1.046875 1.171875q-0.3125 0.734375 -0.3125 2.046875l0 6.046875l-1.875 0zm19.43982 -3.5625l1.921875 0.234375q-0.453125 1.703125 -1.6875 2.640625q-1.234375 0.9375 -3.171875 0.9375q-2.421875 0 -3.84375 -1.484375q-1.421875 -1.5 -1.421875 -4.203125q0 -2.796875 1.4375 -4.328125q1.4375 -1.546875 3.734375 -1.546875q2.21875 0 3.609375 1.515625q1.40625 1.5 1.40625 4.25q0 0.15625 0 0.5l-8.25 0q0.109375 1.8125 1.03125 2.78125q0.921875 0.96875 2.3125 0.96875q1.03125 0 1.75 -0.53125q0.734375 -0.546875 1.171875 -1.734375zm-6.15625 -3.03125l6.171875 0q-0.125 -1.390625 -0.703125 -2.09375q-0.90625 -1.078125 -2.328125 -1.078125q-1.296875 0 -2.171875 0.859375q-0.875 0.859375 -0.96875 2.3125zm9.689819 3.296875l1.859375 -0.296875q0.15625 1.109375 0.859375 1.703125q0.71875 0.59375 2.0 0.59375q1.296875 0 1.921875 -0.515625q0.625 -0.53125 0.625 -1.234375q0 -0.640625 -0.5625 -1.0q-0.375 -0.25 -1.90625 -0.640625q-2.0625 -0.515625 -2.859375 -0.890625q-0.796875 -0.390625 -1.21875 -1.0625q-0.40625 -0.671875 -0.40625 -1.484375q0 -0.734375 0.328125 -1.359375q0.34375 -0.640625 0.9375 -1.0625q0.4375 -0.3125 1.1875 -0.53125q0.75 -0.234375 1.625 -0.234375q1.296875 0 2.28125 0.375q0.984375 0.375 1.453125 1.015625q0.46875 0.640625 0.640625 1.71875l-1.828125 0.25q-0.125 -0.859375 -0.734375 -1.328125q-0.59375 -0.484375 -1.6875 -0.484375q-1.28125 0 -1.84375 0.421875q-0.546875 0.421875 -0.546875 1.0q0 0.359375 0.234375 0.65625q0.21875 0.296875 0.71875 0.5q0.28125 0.109375 1.65625 0.484375q1.984375 0.53125 2.765625 0.875q0.796875 0.328125 1.234375 0.984375q0.453125 0.640625 0.453125 1.59375q0 0.9375 -0.546875 1.765625q-0.546875 0.828125 -1.578125 1.28125q-1.03125 0.453125 -2.328125 0.453125q-2.15625 0 -3.296875 -0.890625q-1.125 -0.90625 -1.4375 -2.65625z" fill-rule="nonzero"/><path fill="#000000" fill-opacity="0.0" d="m741.36615 26.081366l-230.99213 9.606298" fill-rule="evenodd"/><path stroke="#000000" stroke-width="2.0" stroke-linejoin="round" stroke-linecap="butt" d="m741.36615 26.081366l-219.0025 9.107687" fill-rule="evenodd"/><path fill="#000000" stroke="#000000" stroke-width="2.0" stroke-linecap="butt" d="m522.2264 31.888437l-8.931091 3.67774l9.205627 2.9234848z" fill-rule="evenodd"/><path fill="#000000" fill-opacity="0.0" d="m741.36615 26.081366l-41.57483 60.188972" fill-rule="evenodd"/><path stroke="#000000" stroke-width="2.0" stroke-linejoin="round" stroke-linecap="butt" d="m741.36615 26.081366l-34.75476 50.315422" fill-rule="evenodd"/><path fill="#000000" stroke="#000000" stroke-width="2.0" stroke-linecap="butt" d="m703.8933 74.51931l-2.4402466 9.345337l7.876404 -5.590378z" fill-rule="evenodd"/><path fill="#000000" fill-opacity="0.0" d="m612.2402 447.08398l136.8819 0l0 36.59842l-136.8819 0z" fill-rule="evenodd"/><path fill="#000000" d="m627.7777 469.1624l0 -15.265625l5.265625 0q1.78125 0 2.71875 0.21875q1.3125 0.296875 2.234375 1.09375q1.203125 1.015625 1.796875 2.609375q0.609375 1.578125 0.609375 3.625q0 1.734375 -0.40625 3.078125q-0.40625 1.34375 -1.046875 2.234375q-0.625 0.875 -1.390625 1.390625q-0.75 0.5 -1.8125 0.765625q-1.0625 0.25 -2.453125 0.25l-5.515625 0zm2.03125 -1.796875l3.25 0q1.515625 0 2.375 -0.28125q0.859375 -0.28125 1.375 -0.796875q0.703125 -0.71875 1.109375 -1.921875q0.40625 -1.21875 0.40625 -2.953125q0 -2.390625 -0.796875 -3.671875q-0.78125 -1.296875 -1.90625 -1.734375q-0.8125 -0.3125 -2.609375 -0.3125l-3.203125 0l0 11.671875zm20.355652 0.4375q-1.046875 0.875 -2.015625 1.25q-0.953125 0.359375 -2.0625 0.359375q-1.8125 0 -2.796875 -0.890625q-0.984375 -0.890625 -0.984375 -2.28125q0 -0.8125 0.375 -1.484375q0.375 -0.671875 0.96875 -1.078125q0.59375 -0.40625 1.34375 -0.609375q0.5625 -0.140625 1.671875 -0.28125q2.265625 -0.265625 3.34375 -0.640625q0.015625 -0.390625 0.015625 -0.5q0 -1.140625 -0.53125 -1.609375q-0.71875 -0.640625 -2.140625 -0.640625q-1.328125 0 -1.953125 0.46875q-0.625 0.46875 -0.9375 1.640625l-1.828125 -0.25q0.25 -1.171875 0.8125 -1.890625q0.578125 -0.734375 1.65625 -1.125q1.09375 -0.390625 2.515625 -0.390625q1.421875 0 2.296875 0.34375q0.890625 0.328125 1.3125 0.828125q0.421875 0.5 0.578125 1.28125q0.09375 0.46875 0.09375 1.71875l0 2.5q0 2.625 0.125 3.3125q0.125 0.6875 0.46875 1.328125l-1.953125 0q-0.296875 -0.578125 -0.375 -1.359375zm-0.15625 -4.1875q-1.015625 0.40625 -3.0625 0.703125q-1.15625 0.171875 -1.640625 0.375q-0.46875 0.203125 -0.734375 0.609375q-0.265625 0.40625 -0.265625 0.890625q0 0.75 0.5625 1.25q0.578125 0.5 1.671875 0.5q1.078125 0 1.921875 -0.46875q0.84375 -0.484375 1.25 -1.296875q0.296875 -0.640625 0.296875 -1.875l0 -0.6875zm8.892944 3.875l0.265625 1.65625q-0.78125 0.15625 -1.40625 0.15625q-1.03125 0 -1.59375 -0.3125q-0.5625 -0.328125 -0.796875 -0.84375q-0.21875 -0.53125 -0.21875 -2.21875l0 -6.375l-1.375 0l0 -1.453125l1.375 0l0 -2.734375l1.859375 -1.125l0 3.859375l1.890625 0l0 1.453125l-1.890625 0l0 6.46875q0 0.8125 0.09375 1.046875q0.109375 0.21875 0.328125 0.359375q0.234375 0.125 0.640625 0.125q0.3125 0 0.828125 -0.0625zm9.050598 0.3125q-1.046875 0.875 -2.015625 1.25q-0.953125 0.359375 -2.0625 0.359375q-1.8125 0 -2.796875 -0.890625q-0.984375 -0.890625 -0.984375 -2.28125q0 -0.8125 0.375 -1.484375q0.375 -0.671875 0.96875 -1.078125q0.59375 -0.40625 1.34375 -0.609375q0.5625 -0.140625 1.671875 -0.28125q2.265625 -0.265625 3.34375 -0.640625q0.015625 -0.390625 0.015625 -0.5q0 -1.140625 -0.53125 -1.609375q-0.71875 -0.640625 -2.140625 -0.640625q-1.328125 0 -1.953125 0.46875q-0.625 0.46875 -0.9375 1.640625l-1.828125 -0.25q0.25 -1.171875 0.8125 -1.890625q0.578125 -0.734375 1.65625 -1.125q1.09375 -0.390625 2.515625 -0.390625q1.421875 0 2.296875 0.34375q0.890625 0.328125 1.3125 0.828125q0.421875 0.5 0.578125 1.28125q0.09375 0.46875 0.09375 1.71875l0 2.5q0 2.625 0.125 3.3125q0.125 0.6875 0.46875 1.328125l-1.953125 0q-0.296875 -0.578125 -0.375 -1.359375zm-0.15625 -4.1875q-1.015625 0.40625 -3.0625 0.703125q-1.15625 0.171875 -1.640625 0.375q-0.46875 0.203125 -0.734375 0.609375q-0.265625 0.40625 -0.265625 0.890625q0 0.75 0.5625 1.25q0.578125 0.5 1.671875 0.5q1.078125 0 1.921875 -0.46875q0.84375 -0.484375 1.25 -1.296875q0.296875 -0.640625 0.296875 -1.875l0 -0.6875zm10.7248535 5.546875l0 -11.0625l1.6875 0l0 1.578125q1.21875 -1.828125 3.515625 -1.828125q1.0 0 1.84375 0.359375q0.84375 0.359375 1.25 0.953125q0.421875 0.578125 0.59375 1.375q0.09375 0.515625 0.09375 1.828125l0 6.796875l-1.875 0l0 -6.734375q0 -1.140625 -0.21875 -1.703125q-0.21875 -0.578125 -0.78125 -0.90625q-0.546875 -0.34375 -1.296875 -0.34375q-1.203125 0 -2.078125 0.765625q-0.859375 0.75 -0.859375 2.875l0 6.046875l-1.875 0zm11.158569 -5.53125q0 -3.078125 1.71875 -4.546875q1.421875 -1.234375 3.46875 -1.234375q2.28125 0 3.71875 1.5q1.453125 1.484375 1.453125 4.125q0 2.140625 -0.640625 3.359375q-0.625 1.21875 -1.859375 1.90625q-1.21875 0.671875 -2.671875 0.671875q-2.3125 0 -3.75 -1.484375q-1.4375 -1.5 -1.4375 -4.296875zm1.9375 0q0 2.125 0.921875 3.1875q0.921875 1.046875 2.328125 1.046875q1.40625 0 2.328125 -1.0625q0.921875 -1.0625 0.921875 -3.234375q0 -2.046875 -0.9375 -3.109375q-0.921875 -1.0625 -2.3125 -1.0625q-1.40625 0 -2.328125 1.0625q-0.921875 1.046875 -0.921875 3.171875zm17.799194 5.53125l0 -1.390625q-1.046875 1.640625 -3.09375 1.640625q-1.3125 0 -2.421875 -0.71875q-1.109375 -0.734375 -1.71875 -2.046875q-0.609375 -1.3125 -0.609375 -3.0q0 -1.65625 0.546875 -3.0q0.546875 -1.359375 1.65625 -2.078125q1.109375 -0.71875 2.46875 -0.71875q1.0 0 1.78125 0.421875q0.78125 0.421875 1.265625 1.09375l0 -5.46875l1.875 0l0 15.265625l-1.75 0zm-5.921875 -5.515625q0 2.125 0.890625 3.171875q0.90625 1.046875 2.125 1.046875q1.21875 0 2.078125 -1.0q0.859375 -1.0 0.859375 -3.0625q0 -2.28125 -0.875 -3.34375q-0.875 -1.0625 -2.15625 -1.0625q-1.25 0 -2.09375 1.03125q-0.828125 1.015625 -0.828125 3.21875zm18.18982 1.953125l1.921875 0.234375q-0.453125 1.703125 -1.6875 2.640625q-1.234375 0.9375 -3.171875 0.9375q-2.421875 0 -3.84375 -1.484375q-1.421875 -1.5 -1.421875 -4.203125q0 -2.796875 1.4375 -4.328125q1.4375 -1.546875 3.734375 -1.546875q2.21875 0 3.609375 1.515625q1.40625 1.5 1.40625 4.25q0 0.15625 0 0.5l-8.25 0q0.109375 1.8125 1.03125 2.78125q0.921875 0.96875 2.3125 0.96875q1.03125 0 1.75 -0.53125q0.734375 -0.546875 1.171875 -1.734375zm-6.15625 -3.03125l6.171875 0q-0.125 -1.390625 -0.703125 -2.09375q-0.90625 -1.078125 -2.328125 -1.078125q-1.296875 0 -2.171875 0.859375q-0.875 0.859375 -0.96875 2.3125zm9.689819 3.296875l1.859375 -0.296875q0.15625 1.109375 0.859375 1.703125q0.71875 0.59375 2.0 0.59375q1.296875 0 1.921875 -0.515625q0.625 -0.53125 0.625 -1.234375q0 -0.640625 -0.5625 -1.0q-0.375 -0.25 -1.90625 -0.640625q-2.0625 -0.515625 -2.859375 -0.890625q-0.796875 -0.390625 -1.21875 -1.0625q-0.40625 -0.671875 -0.40625 -1.484375q0 -0.734375 0.328125 -1.359375q0.34375 -0.640625 0.9375 -1.0625q0.4375 -0.3125 1.1875 -0.53125q0.75 -0.234375 1.625 -0.234375q1.296875 0 2.28125 0.375q0.984375 0.375 1.453125 1.015625q0.46875 0.640625 0.640625 1.71875l-1.828125 0.25q-0.125 -0.859375 -0.734375 -1.328125q-0.59375 -0.484375 -1.6875 -0.484375q-1.28125 0 -1.84375 0.421875q-0.546875 0.421875 -0.546875 1.0q0 0.359375 0.234375 0.65625q0.21875 0.296875 0.71875 0.5q0.28125 0.109375 1.65625 0.484375q1.984375 0.53125 2.765625 0.875q0.796875 0.328125 1.234375 0.984375q0.453125 0.640625 0.453125 1.59375q0 0.9375 -0.546875 1.765625q-0.546875 0.828125 -1.578125 1.28125q-1.03125 0.453125 -2.328125 0.453125q-2.15625 0 -3.296875 -0.890625q-1.125 -0.90625 -1.4375 -2.65625z" fill-rule="nonzero"/><path fill="#000000" fill-opacity="0.0" d="m680.6811 447.08398l-154.17322 -64.8504" fill-rule="evenodd"/><path stroke="#000000" stroke-width="2.0" stroke-linejoin="round" stroke-linecap="butt" d="m680.6811 447.08398l-143.11194 -60.19763" fill-rule="evenodd"/><path fill="#000000" stroke="#000000" stroke-width="2.0" stroke-linecap="butt" d="m538.85 383.84128l-9.647034 -0.47402954l7.085388 6.564148z" fill-rule="evenodd"/><path fill="#000000" fill-opacity="0.0" d="m680.6811 447.08398l-47.62201 -62.70865" fill-rule="evenodd"/><path stroke="#000000" stroke-width="2.0" stroke-linejoin="round" stroke-linecap="butt" d="m680.6811 447.08398l-40.364563 -53.152008" fill-rule="evenodd"/><path fill="#000000" stroke="#000000" stroke-width="2.0" stroke-linecap="butt" d="m642.9473 391.93405l-8.119995 -5.230255l2.8583374 9.226044z" fill-rule="evenodd"/><path fill="#000000" fill-opacity="0.0" d="m680.6811 447.08398l41.700806 -63.77951" fill-rule="evenodd"/><path stroke="#000000" stroke-width="2.0" stroke-linejoin="round" stroke-linecap="butt" d="m680.6811 447.08398l35.133972 -53.73581" fill-rule="evenodd"/><path fill="#000000" stroke="#000000" stroke-width="2.0" stroke-linecap="butt" d="m718.57996 395.15598l2.2019043 -9.404358l-7.7317505 5.788788z" fill-rule="evenodd"/><path fill="#000000" fill-opacity="0.0" d="m680.6811 447.08398l152.56696 -65.921265" fill-rule="evenodd"/><path stroke="#000000" stroke-width="2.0" stroke-linejoin="round" stroke-linecap="butt" d="m680.6811 447.08398l141.55127 -61.16159" fill-rule="evenodd"/><path fill="#000000" stroke="#000000" stroke-width="2.0" stroke-linecap="butt" d="m823.5426 388.9549l7.0214233 -6.632477l-9.641968 0.56747437z" fill-rule="evenodd"/></g></svg>